<svg width="1920" height="639" viewBox="0 0 1920 639" fill="none" xmlns="http://www.w3.org/2000/svg">
<g clip-path="url(#clip0_209_203)">
<path fill-rule="evenodd" clip-rule="evenodd" d="M2027.06 407.055C2027.06 631.865 1844.81 814.11 1620 814.11C1481.54 814.11 1359.22 744.973 1285.69 639.337H335.513C304.067 723.117 223.229 782.74 128.465 782.74C6.36608 782.74 -92.6145 683.76 -92.6145 561.661C-92.6145 439.562 6.36608 340.582 128.465 340.582C228.224 340.582 312.551 406.656 340.068 497.428H1223.02C1216.43 468.362 1212.95 438.115 1212.95 407.055C1212.95 182.245 1395.19 0 1620 0C1844.81 0 2027.06 182.245 2027.06 407.055Z" fill="#F2E7C9"/>
</g>
<defs>
<clipPath id="clip0_209_203">
<rect width="1920" height="639" fill="white"/>
</clipPath>
</defs>
</svg>
