<svg width="199" height="198" viewBox="0 0 199 198" fill="none" xmlns="http://www.w3.org/2000/svg">
<circle cx="99.4649" cy="98.9346" r="98.5894" fill="#081935"/>
<path d="M68.56 58.601L57.76 47.9112L49.3 56.3317L60.04 67.0215L68.56 58.601ZM52 92.4023H34V104.346H52V92.4023ZM106 32.9813H94V50.5986H106V32.9813ZM150.7 56.3317L142.24 47.9112L131.5 58.601L139.96 67.0215L150.7 56.3317ZM131.44 138.148L142.18 148.897L150.64 140.477L139.84 129.787L131.44 138.148ZM148 92.4023V104.346H166V92.4023H148ZM100 62.5425C80.14 62.5425 64 78.6071 64 98.3743C64 118.142 80.14 134.206 100 134.206C119.86 134.206 136 118.142 136 98.3743C136 78.6071 119.86 62.5425 100 62.5425ZM94 163.767H106V146.15H94V163.767ZM49.3 140.417L57.76 148.837L68.5 138.088L60.04 129.667L49.3 140.417Z" fill="white"/>
</svg>
